<svg xmlns="http://www.w3.org/2000/svg" width="64" height="64" viewBox="0 0 64 64" class="privacy-type__glyph privacy-type__glyph--identifiers" aria-hidden="true"><path d="M52.367 24h-14.76C36.704 24 36 23.342 36 22.51c0-.835.705-1.51 1.606-1.51h14.761c.905 0 1.633.675 1.633 1.51 0 .832-.728 1.49-1.633 1.49m0 10h-14.76C36.704 34 36 33.35 36 32.52c0-.85.705-1.52 1.606-1.52h14.761c.905 0 1.633.67 1.633 1.52 0 .83-.728 1.48-1.633 1.48m0 9h-14.76C36.704 43 36 42.33 36 41.484c0-.83.705-1.484 1.606-1.484h14.761c.905 0 1.633.654 1.633 1.484C54 42.33 53.272 43 52.367 43m-24.04 0H12.66C10.7 43 10 42.459 10 41.401 10 38.288 14.028 34 20.493 34 26.973 34 31 38.288 31 41.401 31 42.46 30.305 43 28.328 43m-7.321-22C23.673 21 26 23.31 26 26.425 26 29.58 23.686 32 21.007 32 18.314 32 16 29.58 16 26.452 15.987 23.359 18.327 21 21.007 21m32.158-10h-42.33C5.645 11 3 13.566 3 18.645V45.33C3 50.408 5.644 53 10.835 53h42.33C58.355 53 61 50.408 61 45.329V18.645C61 13.592 58.356 11 53.165 11"></path></svg>