<svg xmlns="http://www.w3.org/2000/svg" width="64" height="64" viewBox="0 0 64 64" class="privacy-type__glyph privacy-type__glyph--user-content" aria-hidden="true"><path d="M10.227 24.818c0-6.378 3.38-9.713 9.803-9.713h30.333v-.563c0-4.643-2.366-6.987-7.076-6.987H9.122c-4.732 0-7.076 2.344-7.076 6.987v23.73c0 4.643 2.344 6.964 7.076 6.964h1.105V24.818zm10.14 31.28h34.188c4.687 0 7.076-2.344 7.076-6.986V25.156c0-4.62-2.389-6.964-7.076-6.964H20.368c-4.71 0-7.077 2.322-7.077 6.964v23.956c0 4.642 2.367 6.986 7.077 6.986zm8.655-19.2a5.232 5.232 0 01-5.229-5.229c0-2.862 2.344-5.228 5.229-5.228 2.862 0 5.205 2.366 5.205 5.228 0 2.885-2.343 5.228-5.205 5.228zM20.12 52.47c-2.028 0-3.2-1.15-3.2-3.2v-1.848l3.944-3.583c1.983-1.803 3.155-3.043 4.732-3.043 1.623 0 2.907 1.285 4.98 3.065l2.119 1.893 7.37-6.648c2.478-2.231 4.1-3.741 6.061-3.741 2.006 0 3.696 1.465 6.108 3.741l5.769 5.476v4.688c0 2.05-1.194 3.2-3.2 3.2H20.12z"></path></svg>