<svg xmlns="http://www.w3.org/2000/svg" width="64" height="64" viewBox="0 0 64 64" class="privacy-type__glyph privacy-type__glyph--browsing-history" aria-hidden="true"><path d="M32.09 61.568c16.185 0 29.586-13.43 29.586-29.587 0-16.186-13.43-29.587-29.616-29.587-16.157 0-29.558 13.4-29.558 29.587 0 16.156 13.43 29.587 29.587 29.587zM16.918 35.113c-1.16 0-2.03-.87-2.03-2.03 0-1.131.87-2.002 2.03-2.002h13.14V13.532a1.97 1.97 0 012.001-2.001c1.131 0 2.03.87 2.03 2.001v19.551c0 1.16-.899 2.03-2.03 2.03H16.92z"></path></svg>