<svg xmlns="http://www.w3.org/2000/svg" xmlns:xlink="http://www.w3.org/1999/xlink" version="1.1" width="1080" height="1080" viewBox="0 0 1080 1080" xml:space="preserve">
<desc>Created with Fabric.js 5.2.4</desc>
<defs>
</defs>
<g transform="matrix(1 0 0 1 540 540)" id="db5b3e94-2809-44dc-8d57-f5810647d2e4"  >
<rect style="stroke: none; stroke-width: 1; stroke-dasharray: none; stroke-linecap: butt; stroke-dashoffset: 0; stroke-linejoin: miter; stroke-miterlimit: 4; fill: rgb(255,255,255); fill-rule: nonzero; opacity: 1; visibility: hidden;" vector-effect="non-scaling-stroke"  x="-540" y="-540" rx="0" ry="0" width="1080" height="1080" />
</g>
<g transform="matrix(1 0 0 1 540 540)" id="e096dab1-ea06-419b-bcfa-c07844678204"  >
</g>
<g transform="matrix(NaN NaN NaN NaN 0 0)"  >
<g style=""   >
</g>
</g>
<g transform="matrix(16.88 0 0 16.88 540 540)"  >
<path style="stroke: none; stroke-width: 1; stroke-dasharray: none; stroke-linecap: butt; stroke-dashoffset: 0; stroke-linejoin: miter; stroke-miterlimit: 4; fill: rgb(255,253,253); fill-rule: nonzero; opacity: 1;"  transform=" translate(-32.09, -31.98)" d="M 32.09 61.568 C 48.275000000000006 61.568 61.676 48.138 61.676 31.980999999999998 C 61.676 15.794999999999998 48.246 2.3939999999999984 32.06 2.3939999999999984 C 15.903000000000002 2.3939999999999984 2.5020000000000024 15.793999999999999 2.5020000000000024 31.980999999999998 C 2.5020000000000024 48.137 15.932000000000002 61.568 32.089 61.568 z M 16.918 35.113 C 15.758 35.113 14.888 34.243 14.888 33.083 C 14.888 31.951999999999998 15.758 31.081 16.918 31.081 L 30.058 31.081 L 30.058 13.532 C 30.049540660785627 12.998753484932445 30.2576421313438 12.484861471127177 30.63475180123549 12.107751801235489 C 31.011861471127176 11.730642131343801 31.52575348493244 11.52254066078563 32.059 11.531 C 33.19 11.531 34.089 12.401 34.089 13.532 L 34.089 33.083 C 34.089 34.242999999999995 33.19 35.113 32.059 35.113 L 16.92 35.113 z" stroke-linecap="round" />
</g>
</svg>