<svg xmlns="http://www.w3.org/2000/svg" width="64" height="64" viewBox="0 0 64 64" class="privacy-type__glyph privacy-type__glyph--contact-info" aria-hidden="true"><path d="M32.09 61.568c16.185 0 29.586-13.43 29.586-29.587 0-16.186-13.43-29.587-29.616-29.587-16.157 0-29.558 13.4-29.558 29.587 0 16.156 13.43 29.587 29.587 29.587zm-.29-40.175c-2.176 0-3.917-1.74-3.917-3.945 0-2.204 1.74-3.945 3.916-3.945s3.887 1.74 3.887 3.945-1.711 3.945-3.887 3.945zm-4.961 27.093c-1.247 0-2.205-.9-2.205-2.147 0-1.16.958-2.117 2.205-2.117h3.684V30.588h-3.19c-1.22 0-2.176-.899-2.176-2.146 0-1.16.957-2.118 2.175-2.118h5.627c1.538 0 2.35 1.103 2.35 2.727v15.17h3.684c1.247 0 2.204.958 2.204 2.118 0 1.247-.957 2.147-2.204 2.147H26.839z"></path></svg>