<?xml version="1.0" encoding="UTF-8" standalone="no" ?>
<!DOCTYPE svg PUBLIC "-//W3C//DTD SVG 1.1//EN" "http://www.w3.org/Graphics/SVG/1.1/DTD/svg11.dtd">
<svg xmlns="http://www.w3.org/2000/svg" xmlns:xlink="http://www.w3.org/1999/xlink" version="1.1" width="1080" height="1080" viewBox="0 0 1080 1080" xml:space="preserve">
<desc>Created with Fabric.js 5.2.4</desc>
<defs>
</defs>
<rect x="0" y="0" width="100%" height="100%" fill="transparent"></rect>
<g transform="matrix(1 0 0 1 540 540)" id="db5b3e94-2809-44dc-8d57-f5810647d2e4"  >
<rect style="stroke: none; stroke-width: 1; stroke-dasharray: none; stroke-linecap: butt; stroke-dashoffset: 0; stroke-linejoin: miter; stroke-miterlimit: 4; fill: rgb(255,255,255); fill-rule: nonzero; opacity: 1; visibility: hidden;" vector-effect="non-scaling-stroke"  x="-540" y="-540" rx="0" ry="0" width="1080" height="1080" />
</g>
<g transform="matrix(1 0 0 1 540 540)" id="e096dab1-ea06-419b-bcfa-c07844678204"  >
</g>
<g transform="matrix(NaN NaN NaN NaN 0 0)"  >
<g style=""   >
</g>
</g>
<g transform="matrix(NaN NaN NaN NaN 0 0)"  >
<g style=""   >
</g>
</g>
<g transform="matrix(16.88 0 0 16.88 540 540)"  >
<path style="stroke: none; stroke-width: 1; stroke-dasharray: none; stroke-linecap: butt; stroke-dashoffset: 0; stroke-linejoin: miter; stroke-miterlimit: 4; fill: rgb(255,255,255); fill-rule: nonzero; opacity: 1;"  transform=" translate(-32.09, -31.98)" d="M 32.09 61.568 C 48.275000000000006 61.568 61.676 48.138 61.676 31.980999999999998 C 61.676 15.794999999999998 48.246 2.3939999999999984 32.06 2.3939999999999984 C 15.903000000000002 2.3939999999999984 2.5020000000000024 15.793999999999999 2.5020000000000024 31.980999999999998 C 2.5020000000000024 48.137 15.932000000000002 61.568 32.089 61.568 z M 31.800000000000004 21.393 C 29.624000000000002 21.393 27.883000000000003 19.653000000000002 27.883000000000003 17.448 C 27.883000000000003 15.244 29.623 13.503 31.799000000000003 13.503 C 33.97500000000001 13.503 35.686 15.243 35.686 17.448 C 35.686 19.653 33.975 21.393 31.799 21.393 z M 26.839000000000006 48.486000000000004 C 25.592000000000006 48.486000000000004 24.634000000000007 47.586000000000006 24.634000000000007 46.339000000000006 C 24.634000000000007 45.17900000000001 25.592000000000006 44.22200000000001 26.839000000000006 44.22200000000001 L 30.523000000000007 44.22200000000001 L 30.523000000000007 30.588 L 27.333000000000006 30.588 C 26.113000000000007 30.588 25.157000000000004 29.689 25.157000000000004 28.442 C 25.157000000000004 27.282 26.114000000000004 26.324 27.332000000000004 26.324 L 32.959 26.324 C 34.497 26.324 35.309000000000005 27.427000000000003 35.309000000000005 29.051000000000002 L 35.309000000000005 44.221000000000004 L 38.993 44.221000000000004 C 40.24 44.221000000000004 41.197 45.179 41.197 46.339000000000006 C 41.197 47.586000000000006 40.24 48.486000000000004 38.993 48.486000000000004 L 26.839 48.486000000000004 z" stroke-linecap="round" />
</g>
</svg>