<svg xmlns="http://www.w3.org/2000/svg" width="64" height="64" viewBox="0 0 64 64" class="privacy-type__glyph privacy-type__glyph--contacts" aria-hidden="true"><path d="M32.09 61.568c16.185 0 29.586-13.43 29.586-29.587 0-16.186-13.43-29.587-29.616-29.587-16.157 0-29.558 13.4-29.558 29.587 0 16.156 13.43 29.587 29.587 29.587zm0-19.696c-8.703 0-15.432 3.104-18.362 6.585-3.916-4.352-6.266-10.124-6.266-16.476 0-13.692 10.907-24.656 24.598-24.656 13.691 0 24.656 10.964 24.686 24.656.028 6.352-2.35 12.124-6.266 16.505-2.93-3.481-9.66-6.614-18.39-6.614zm0-4.931c5.568.058 9.949-4.7 9.949-10.936 0-5.86-4.38-10.732-9.95-10.732-5.57 0-9.978 4.873-9.95 10.732.03 6.237 4.38 10.878 9.95 10.936z"></path></svg>    