<svg xmlns="http://www.w3.org/2000/svg" width="64" height="64" viewBox="0 0 64 64" class="privacy-type__glyph privacy-type__glyph--diagnostics" aria-hidden="true"><path d="M29.47 61.996h5.234c1.48 0 2.56-.882 2.873-2.332l1.48-6.258c1.109-.37 2.19-.797 3.128-1.252l5.49 3.357c1.223.768 2.617.654 3.64-.37l3.67-3.64c1.024-1.025 1.166-2.504.341-3.727l-3.356-5.433c.483-.995.91-2.02 1.223-3.043l6.314-1.508c1.45-.313 2.304-1.393 2.304-2.872v-5.149c0-1.45-.853-2.531-2.304-2.844l-6.257-1.508c-.37-1.166-.825-2.218-1.223-3.1l3.356-5.518c.796-1.223.711-2.617-.341-3.64l-3.727-3.67c-1.052-.967-2.303-1.138-3.555-.427l-5.575 3.442c-.91-.483-1.962-.91-3.129-1.28l-1.479-6.343c-.313-1.45-1.393-2.332-2.873-2.332h-5.233c-1.48 0-2.56.882-2.901 2.332l-1.48 6.286c-1.109.37-2.19.797-3.157 1.309l-5.518-3.414c-1.251-.71-2.531-.568-3.584.427l-3.697 3.67c-1.053 1.023-1.166 2.417-.342 3.64l3.328 5.518c-.37.882-.825 1.934-1.194 3.1l-6.258 1.508c-1.45.313-2.304 1.394-2.304 2.844v5.149c0 1.479.853 2.56 2.304 2.872l6.315 1.508c.312 1.024.739 2.048 1.194 3.043L8.85 47.774c-.853 1.223-.682 2.702.342 3.726l3.64 3.641c1.024 1.024 2.446 1.138 3.67.37l5.46-3.357c.968.455 2.02.882 3.13 1.252l1.479 6.258c.34 1.45 1.422 2.332 2.9 2.332zm2.618-19.683c-5.518 0-10.04-4.551-10.04-10.07 0-5.489 4.522-10.011 10.04-10.011 5.518 0 10.04 4.522 10.04 10.012 0 5.518-4.522 10.069-10.04 10.069z"></path></svg>