<?xml version="1.0" encoding="UTF-8" standalone="no" ?>
<!DOCTYPE svg PUBLIC "-//W3C//DTD SVG 1.1//EN" "http://www.w3.org/Graphics/SVG/1.1/DTD/svg11.dtd">
<svg xmlns="http://www.w3.org/2000/svg" xmlns:xlink="http://www.w3.org/1999/xlink" version="1.1" width="1080" height="1080" viewBox="0 0 1080 1080" xml:space="preserve">
<desc>Created with Fabric.js 5.2.4</desc>
<defs>
</defs>
<rect x="0" y="0" width="100%" height="100%" fill="transparent"></rect>
<g transform="matrix(1 0 0 1 540 540)" id="db5b3e94-2809-44dc-8d57-f5810647d2e4"  >
<rect style="stroke: none; stroke-width: 1; stroke-dasharray: none; stroke-linecap: butt; stroke-dashoffset: 0; stroke-linejoin: miter; stroke-miterlimit: 4; fill: rgb(255,255,255); fill-rule: nonzero; opacity: 1; visibility: hidden;" vector-effect="non-scaling-stroke"  x="-540" y="-540" rx="0" ry="0" width="1080" height="1080" />
</g>
<g transform="matrix(1 0 0 1 540 540)" id="e096dab1-ea06-419b-bcfa-c07844678204"  >
</g>
<g transform="matrix(NaN NaN NaN NaN 0 0)"  >
<g style=""   >
</g>
</g>
<g transform="matrix(NaN NaN NaN NaN 0 0)"  >
<g style=""   >
</g>
</g>
<g transform="matrix(NaN NaN NaN NaN 0 0)"  >
<g style=""   >
</g>
</g>
<g transform="matrix(NaN NaN NaN NaN 0 0)"  >
<g style=""   >
</g>
</g>
<g transform="matrix(16.88 0 0 16.88 540 540)"  >
<path style="stroke: none; stroke-width: 1; stroke-dasharray: none; stroke-linecap: butt; stroke-dashoffset: 0; stroke-linejoin: miter; stroke-miterlimit: 4; fill: rgb(255,255,255); fill-rule: nonzero; opacity: 1;"  transform=" translate(-32.09, -32.27)" d="M 29.47 61.996 L 34.704 61.996 C 36.184 61.996 37.264 61.114000000000004 37.577 59.664 L 39.056999999999995 53.406 C 40.166 53.036 41.24699999999999 52.609 42.184999999999995 52.153999999999996 L 47.675 55.510999999999996 C 48.897999999999996 56.278999999999996 50.291999999999994 56.165 51.315 55.141 L 54.985 51.501 C 56.009 50.476 56.150999999999996 48.997 55.326 47.774 L 51.97 42.341 C 52.452999999999996 41.346000000000004 52.879999999999995 40.321 53.193 39.298 L 59.507 37.79 C 60.957 37.477 61.811 36.397 61.811 34.918 L 61.811 29.769 C 61.811 28.319 60.958 27.238 59.507 26.924999999999997 L 53.25 25.416999999999998 C 52.88 24.250999999999998 52.425 23.198999999999998 52.027 22.316999999999997 L 55.383 16.798999999999996 C 56.179 15.575999999999995 56.094 14.181999999999995 55.042 13.158999999999995 L 51.315000000000005 9.488999999999995 C 50.263000000000005 8.521999999999995 49.01200000000001 8.350999999999996 47.760000000000005 9.061999999999996 L 42.185 12.503999999999996 C 41.275000000000006 12.020999999999995 40.223 11.593999999999996 39.056000000000004 11.223999999999997 L 37.577000000000005 4.880999999999997 C 37.264 3.4309999999999965 36.184000000000005 2.548999999999997 34.70400000000001 2.548999999999997 L 29.471000000000007 2.548999999999997 C 27.991000000000007 2.548999999999997 26.91100000000001 3.430999999999997 26.570000000000007 4.880999999999997 L 25.090000000000007 11.166999999999996 C 23.98100000000001 11.536999999999995 22.900000000000006 11.963999999999997 21.933000000000007 12.475999999999996 L 16.415000000000006 9.061999999999996 C 15.164000000000007 8.351999999999997 13.884000000000006 8.493999999999996 12.831000000000007 9.488999999999995 L 9.134000000000007 13.158999999999995 C 8.081000000000007 14.181999999999995 7.968000000000007 15.575999999999995 8.792000000000007 16.798999999999996 L 12.120000000000006 22.316999999999997 C 11.750000000000007 23.198999999999998 11.295000000000007 24.250999999999998 10.926000000000005 25.416999999999998 L 4.6680000000000055 26.924999999999997 C 3.2180000000000053 27.237999999999996 2.3640000000000057 28.318999999999996 2.3640000000000057 29.769 L 2.3640000000000057 34.918 C 2.3640000000000057 36.397 3.217000000000006 37.478 4.6680000000000055 37.79 L 10.983000000000006 39.298 C 11.295000000000005 40.322 11.722000000000007 41.346000000000004 12.177000000000007 42.341 L 8.85 47.774 C 7.997 48.997 8.168 50.476 9.192 51.5 L 12.832 55.141 C 13.856000000000002 56.165 15.278 56.278999999999996 16.502000000000002 55.510999999999996 L 21.962000000000003 52.153999999999996 C 22.930000000000003 52.608999999999995 23.982000000000003 53.035999999999994 25.092000000000002 53.406 L 26.571 59.664 C 26.911 61.114000000000004 27.993000000000002 61.996 29.471 61.996 z M 32.088 42.313 C 26.57 42.313 22.048000000000002 37.762 22.048000000000002 32.243 C 22.048000000000002 26.754 26.57 22.232000000000003 32.088 22.232000000000003 C 37.606 22.232000000000003 42.128 26.754000000000005 42.128 32.244 C 42.128 37.762 37.606 42.313 32.088 42.313 z" stroke-linecap="round" />
</g>
</svg>