<svg xmlns="http://www.w3.org/2000/svg" width="64" height="64" viewBox="0 0 64 64" class="privacy-type__glyph privacy-type__glyph--financial-info" aria-hidden="true"><path d="M53.666 8.773H9.973c-5.279 0-7.93 2.601-7.93 7.83v4.015h59.553v-4.016c0-5.202-2.627-7.83-7.93-7.83zM13.534 46.53c-1.49 0-2.5-1.01-2.5-2.424v-4.672c0-1.44 1.01-2.425 2.5-2.425h6.188c1.464 0 2.475.985 2.475 2.425v4.672c0 1.414-1.01 2.424-2.475 2.424h-6.188zM9.973 55.27h43.693c5.303 0 7.93-2.627 7.93-7.83V26.352H2.042V47.44c0 5.228 2.652 7.829 7.93 7.829z"></path></svg>