<?xml version="1.0" encoding="UTF-8" standalone="no" ?>
<!DOCTYPE svg PUBLIC "-//W3C//DTD SVG 1.1//EN" "http://www.w3.org/Graphics/SVG/1.1/DTD/svg11.dtd">
<svg xmlns="http://www.w3.org/2000/svg" xmlns:xlink="http://www.w3.org/1999/xlink" version="1.1" width="1080" height="1080" viewBox="0 0 1080 1080" xml:space="preserve">
<desc>Created with Fabric.js 5.2.4</desc>
<defs>
</defs>
<rect x="0" y="0" width="100%" height="100%" fill="transparent"></rect>
<g transform="matrix(1 0 0 1 540 540)" id="db5b3e94-2809-44dc-8d57-f5810647d2e4"  >
<rect style="stroke: none; stroke-width: 1; stroke-dasharray: none; stroke-linecap: butt; stroke-dashoffset: 0; stroke-linejoin: miter; stroke-miterlimit: 4; fill: rgb(255,255,255); fill-rule: nonzero; opacity: 1; visibility: hidden;" vector-effect="non-scaling-stroke"  x="-540" y="-540" rx="0" ry="0" width="1080" height="1080" />
</g>
<g transform="matrix(1 0 0 1 540 540)" id="e096dab1-ea06-419b-bcfa-c07844678204"  >
</g>
<g transform="matrix(NaN NaN NaN NaN 0 0)"  >
<g style=""   >
</g>
</g>
<g transform="matrix(NaN NaN NaN NaN 0 0)"  >
<g style=""   >
</g>
</g>
<g transform="matrix(NaN NaN NaN NaN 0 0)"  >
<g style=""   >
</g>
</g>
<g transform="matrix(NaN NaN NaN NaN 0 0)"  >
<g style=""   >
</g>
</g>
<g transform="matrix(NaN NaN NaN NaN 0 0)"  >
<g style=""   >
</g>
</g>
<g transform="matrix(16.88 0 0 16.88 540 540)"  >
<path style="stroke: none; stroke-width: 1; stroke-dasharray: none; stroke-linecap: butt; stroke-dashoffset: 0; stroke-linejoin: miter; stroke-miterlimit: 4; fill: rgb(255,255,255); fill-rule: nonzero; opacity: 1;"  transform=" translate(-31.82, -32.02)" d="M 53.666 8.773 L 9.973 8.773 C 4.694000000000001 8.773 2.043000000000001 11.373999999999999 2.043000000000001 16.603 L 2.043000000000001 20.618000000000002 L 61.596 20.618000000000002 L 61.596 16.602000000000004 C 61.596 11.400000000000004 58.968999999999994 8.772000000000004 53.666 8.772000000000004 z M 13.534 46.53 C 12.044 46.53 11.034 45.52 11.034 44.106 L 11.034 39.434000000000005 C 11.034 37.99400000000001 12.044 37.00900000000001 13.534 37.00900000000001 L 19.722 37.00900000000001 C 21.186 37.00900000000001 22.197000000000003 37.99400000000001 22.197000000000003 39.434000000000005 L 22.197000000000003 44.106 C 22.197000000000003 45.52 21.187 46.53 19.722 46.53 L 13.534000000000002 46.53 z M 9.973 55.27 L 53.666 55.27 C 58.968999999999994 55.27 61.596 52.643 61.596 47.440000000000005 L 61.596 26.352 L 2.042 26.352 L 2.042 47.44 C 2.042 52.668 4.694 55.269 9.972 55.269 z" stroke-linecap="round" />
</g>
</svg>