<?xml version="1.0" encoding="UTF-8" standalone="no" ?>
<!DOCTYPE svg PUBLIC "-//W3C//DTD SVG 1.1//EN" "http://www.w3.org/Graphics/SVG/1.1/DTD/svg11.dtd">
<svg xmlns="http://www.w3.org/2000/svg" xmlns:xlink="http://www.w3.org/1999/xlink" version="1.1" width="1080" height="1080" viewBox="0 0 1080 1080" xml:space="preserve">
<desc>Created with Fabric.js 5.2.4</desc>
<defs>
</defs>
<rect x="0" y="0" width="100%" height="100%" fill="transparent"></rect>
<g transform="matrix(1 0 0 1 540 540)" id="db5b3e94-2809-44dc-8d57-f5810647d2e4"  >
<rect style="stroke: none; stroke-width: 1; stroke-dasharray: none; stroke-linecap: butt; stroke-dashoffset: 0; stroke-linejoin: miter; stroke-miterlimit: 4; fill: rgb(255,255,255); fill-rule: nonzero; opacity: 1; visibility: hidden;" vector-effect="non-scaling-stroke"  x="-540" y="-540" rx="0" ry="0" width="1080" height="1080" />
</g>
<g transform="matrix(1 0 0 1 540 540)" id="e096dab1-ea06-419b-bcfa-c07844678204"  >
</g>
<g transform="matrix(NaN NaN NaN NaN 0 0)"  >
<g style=""   >
</g>
</g>
<g transform="matrix(NaN NaN NaN NaN 0 0)"  >
<g style=""   >
</g>
</g>
<g transform="matrix(NaN NaN NaN NaN 0 0)"  >
<g style=""   >
</g>
</g>
<g transform="matrix(NaN NaN NaN NaN 0 0)"  >
<g style=""   >
</g>
</g>
<g transform="matrix(NaN NaN NaN NaN 0 0)"  >
<g style=""   >
</g>
</g>
<g transform="matrix(NaN NaN NaN NaN 0 0)"  >
<g style=""   >
</g>
</g>
<g transform="matrix(16.88 0 0 16.88 540 540)"  >
<path style="stroke: none; stroke-width: 1; stroke-dasharray: none; stroke-linecap: butt; stroke-dashoffset: 0; stroke-linejoin: miter; stroke-miterlimit: 4; fill: rgb(255,247,247); fill-rule: nonzero; opacity: 1;"  transform=" translate(-32.09, -31.98)" d="M 32.09 61.568 C 48.275000000000006 61.568 61.676 48.138 61.676 31.980999999999998 C 61.676 15.794999999999998 48.246 2.3939999999999984 32.06 2.3939999999999984 C 15.903000000000002 2.3939999999999984 2.5020000000000024 15.793999999999999 2.5020000000000024 31.980999999999998 C 2.5020000000000024 48.137 15.932000000000002 61.568 32.089 61.568 z M 24.866000000000003 18.753999999999998 C 28.086000000000002 18.753999999999998 30.552000000000003 20.580999999999996 32.06 23.308 C 33.569 20.581 36.063 18.753999999999998 39.254000000000005 18.753999999999998 C 44.330000000000005 18.753999999999998 47.98400000000001 22.581999999999997 47.98400000000001 27.891 C 47.98400000000001 35.723 39.63100000000001 42.887 33.56900000000001 46.861 C 33.07500000000001 47.208999999999996 32.52400000000001 47.586 32.11900000000001 47.586 C 31.741000000000007 47.586 31.10300000000001 47.18 30.552000000000007 46.861 C 24.432000000000006 42.974 16.135000000000005 35.723 16.135000000000005 27.891 C 16.135000000000005 22.581999999999997 19.790000000000006 18.753999999999998 24.866000000000007 18.753999999999998 z" stroke-linecap="round" />
</g>
</svg>