<?xml version="1.0" encoding="UTF-8" standalone="no" ?>
<!DOCTYPE svg PUBLIC "-//W3C//DTD SVG 1.1//EN" "http://www.w3.org/Graphics/SVG/1.1/DTD/svg11.dtd">
<svg xmlns="http://www.w3.org/2000/svg" xmlns:xlink="http://www.w3.org/1999/xlink" version="1.1" width="1080" height="1080" viewBox="0 0 1080 1080" xml:space="preserve">
<desc>Created with Fabric.js 5.2.4</desc>
<defs>
</defs>
<rect x="0" y="0" width="100%" height="100%" fill="transparent"></rect>
<g transform="matrix(1 0 0 1 540 540)" id="e096dab1-ea06-419b-bcfa-c07844678204"  >
</g>
<g transform="matrix(1 0 0 1 540 540)" id="db5b3e94-2809-44dc-8d57-f5810647d2e4"  >
<rect style="stroke: none; stroke-width: 1; stroke-dasharray: none; stroke-linecap: butt; stroke-dashoffset: 0; stroke-linejoin: miter; stroke-miterlimit: 4; fill: rgb(255,255,255); fill-rule: nonzero; opacity: 1; visibility: hidden;" vector-effect="non-scaling-stroke"  x="-540" y="-540" rx="0" ry="0" width="1080" height="1080" />
</g>
<g transform="matrix(0 0 0 0 0 0)"  >
<g style=""   >
</g>
</g>
<g transform="matrix(0 0 0 0 0 0)"  >
<g style=""   >
</g>
</g>
<g transform="matrix(0 0 0 0 0 0)"  >
<g style=""   >
</g>
</g>
<g transform="matrix(0 0 0 0 0 0)"  >
<g style=""   >
</g>
</g>
<g transform="matrix(0 0 0 0 0 0)"  >
<g style=""   >
</g>
</g>
<g transform="matrix(0 0 0 0 0 0)"  >
<g style=""   >
</g>
</g>
<g transform="matrix(0 0 0 0 0 0)"  >
<g style=""   >
</g>
</g>
<g transform="matrix(NaN NaN NaN NaN 0 0)"  >
<g style=""   >
</g>
</g>
<g transform="matrix(16.88 0 0 16.88 540 540)"  >
<path style="stroke: none; stroke-width: 1; stroke-dasharray: none; stroke-linecap: butt; stroke-dashoffset: 0; stroke-linejoin: miter; stroke-miterlimit: 4; fill: rgb(255,255,255); fill-rule: nonzero; opacity: 1;"  transform=" translate(-32, -32)" d="M 52.367 24 L 37.607 24 C 36.704 24 36 23.342 36 22.51 C 36 21.675 36.705 21 37.606 21 L 52.367000000000004 21 C 53.272000000000006 21 54.00000000000001 21.675 54.00000000000001 22.51 C 54.00000000000001 23.342000000000002 53.272000000000006 24 52.367000000000004 24 M 52.367000000000004 34 L 37.607000000000006 34 C 36.704 34 36 33.35 36 32.52 C 36 31.67 36.705 31.000000000000004 37.606 31.000000000000004 L 52.367000000000004 31.000000000000004 C 53.272000000000006 31.000000000000004 54.00000000000001 31.670000000000005 54.00000000000001 32.52 C 54.00000000000001 33.35 53.272000000000006 34 52.367000000000004 34 M 52.367000000000004 43 L 37.607000000000006 43 C 36.704 43 36 42.33 36 41.484 C 36 40.654 36.705 40 37.606 40 L 52.367000000000004 40 C 53.272000000000006 40 54.00000000000001 40.654 54.00000000000001 41.484 C 54 42.33 53.272 43 52.367 43 M 28.326999999999998 43 L 12.66 43 C 10.7 43 10 42.459 10 41.401 C 10 38.288 14.028 34 20.493 34 C 26.973 34 31 38.288 31 41.401 C 31 42.46 30.305 43 28.328 43 M 21.006999999999998 21 C 23.673 21 26 23.31 26 26.425 C 26 29.58 23.686 32 21.007 32 C 18.314 32 16 29.58 16 26.452 C 15.987 23.359 18.327 21 21.007 21 M 53.165000000000006 11 L 10.835000000000008 11 C 5.645 11 3 13.566 3 18.645 L 3 45.33 C 3 50.408 5.644 53 10.835 53 L 53.165 53 C 58.355 53 61 50.408 61 45.329 L 61 18.645 C 61 13.592 58.356 11 53.165 11" stroke-linecap="round" />
</g>
</svg>