<?xml version="1.0" encoding="UTF-8" standalone="no" ?>
<!DOCTYPE svg PUBLIC "-//W3C//DTD SVG 1.1//EN" "http://www.w3.org/Graphics/SVG/1.1/DTD/svg11.dtd">
<svg xmlns="http://www.w3.org/2000/svg" xmlns:xlink="http://www.w3.org/1999/xlink" version="1.1" width="1080" height="1080" viewBox="0 0 1080 1080" xml:space="preserve">
<desc>Created with Fabric.js 5.2.4</desc>
<defs>
</defs>
<rect x="0" y="0" width="100%" height="100%" fill="transparent"></rect>
<g transform="matrix(1 0 0 1 540 540)" id="e096dab1-ea06-419b-bcfa-c07844678204"  >
</g>
<g transform="matrix(1 0 0 1 540 540)" id="db5b3e94-2809-44dc-8d57-f5810647d2e4"  >
<rect style="stroke: none; stroke-width: 1; stroke-dasharray: none; stroke-linecap: butt; stroke-dashoffset: 0; stroke-linejoin: miter; stroke-miterlimit: 4; fill: rgb(255,255,255); fill-rule: nonzero; opacity: 1; visibility: hidden;" vector-effect="non-scaling-stroke"  x="-540" y="-540" rx="0" ry="0" width="1080" height="1080" />
</g>
<g transform="matrix(0 0 0 0 0 0)"  >
<g style=""   >
</g>
</g>
<g transform="matrix(0 0 0 0 0 0)"  >
<g style=""   >
</g>
</g>
<g transform="matrix(0 0 0 0 0 0)"  >
<g style=""   >
</g>
</g>
<g transform="matrix(0 0 0 0 0 0)"  >
<g style=""   >
</g>
</g>
<g transform="matrix(0 0 0 0 0 0)"  >
<g style=""   >
</g>
</g>
<g transform="matrix(0 0 0 0 0 0)"  >
<g style=""   >
</g>
</g>
<g transform="matrix(0 0 0 0 0 0)"  >
<g style=""   >
</g>
</g>
<g transform="matrix(NaN NaN NaN NaN 0 0)"  >
<g style=""   >
</g>
</g>
<g transform="matrix(NaN NaN NaN NaN 0 0)"  >
<g style=""   >
</g>
</g>
<g transform="matrix(16.88 0 0 16.88 540 540)"  >
<path style="stroke: none; stroke-width: 1; stroke-dasharray: none; stroke-linecap: butt; stroke-dashoffset: 0; stroke-linejoin: miter; stroke-miterlimit: 4; fill: rgb(255,255,255); fill-rule: nonzero; opacity: 1;"  transform=" translate(-32.09, -32.01)" d="M 7.54 33.695 L 29.717 33.783 C 30.127 33.783 30.331999999999997 33.959 30.331999999999997 34.398 L 30.391 56.518 C 30.391 59.3 31.621 61.586 33.936 61.586 C 36.162 61.586 37.364 59.506 38.418 57.191 L 60.86 8.851 C 61.417 7.709000000000001 61.681 6.683000000000001 61.681 5.834000000000001 C 61.681 3.9000000000000012 60.245 2.4350000000000014 58.282 2.4350000000000014 C 57.403999999999996 2.4350000000000014 56.378 2.6700000000000013 55.236 3.2260000000000013 L 6.895 25.638 C 4.668 26.664 2.5 27.894 2.5 30.15 C 2.5 32.406 4.668 33.695 7.54 33.695 z" stroke-linecap="round" />
</g>
</svg>