<svg xmlns="http://www.w3.org/2000/svg" width="64" height="64" viewBox="0 0 64 64" class="privacy-type__glyph privacy-type__glyph--other" aria-hidden="true"><path d="M32.09 61.568c16.185 0 29.586-13.43 29.586-29.587 0-16.186-13.43-29.587-29.616-29.587-16.157 0-29.558 13.4-29.558 29.587 0 16.156 13.43 29.587 29.587 29.587zM18.078 36.332c-2.379 0-4.351-1.944-4.351-4.38 0-2.408 1.972-4.351 4.35-4.351 2.408 0 4.381 1.943 4.381 4.35a4.358 4.358 0 01-4.38 4.38zm13.981 0a4.376 4.376 0 01-4.38-4.38c0-2.408 1.973-4.351 4.38-4.351a4.345 4.345 0 014.351 4.35 4.352 4.352 0 01-4.35 4.38zm13.981 0a4.358 4.358 0 01-4.38-4.38 4.352 4.352 0 014.38-4.351c2.38 0 4.352 1.943 4.352 4.35 0 2.437-1.973 4.38-4.352 4.38z"></path></svg>