<?xml version="1.0" encoding="UTF-8" standalone="no" ?>
<!DOCTYPE svg PUBLIC "-//W3C//DTD SVG 1.1//EN" "http://www.w3.org/Graphics/SVG/1.1/DTD/svg11.dtd">
<svg xmlns="http://www.w3.org/2000/svg" xmlns:xlink="http://www.w3.org/1999/xlink" version="1.1" width="1080" height="1080" viewBox="0 0 1080 1080" xml:space="preserve">
<desc>Created with Fabric.js 5.2.4</desc>
<defs>
</defs>
<rect x="0" y="0" width="100%" height="100%" fill="transparent"></rect>
<g transform="matrix(1 0 0 1 540 540)" id="e096dab1-ea06-419b-bcfa-c07844678204"  >
</g>
<g transform="matrix(1 0 0 1 540 540)" id="db5b3e94-2809-44dc-8d57-f5810647d2e4"  >
<rect style="stroke: none; stroke-width: 1; stroke-dasharray: none; stroke-linecap: butt; stroke-dashoffset: 0; stroke-linejoin: miter; stroke-miterlimit: 4; fill: rgb(255,255,255); fill-rule: nonzero; opacity: 1; visibility: hidden;" vector-effect="non-scaling-stroke"  x="-540" y="-540" rx="0" ry="0" width="1080" height="1080" />
</g>
<g transform="matrix(0 0 0 0 0 0)"  >
<g style=""   >
</g>
</g>
<g transform="matrix(0 0 0 0 0 0)"  >
<g style=""   >
</g>
</g>
<g transform="matrix(0 0 0 0 0 0)"  >
<g style=""   >
</g>
</g>
<g transform="matrix(0 0 0 0 0 0)"  >
<g style=""   >
</g>
</g>
<g transform="matrix(0 0 0 0 0 0)"  >
<g style=""   >
</g>
</g>
<g transform="matrix(0 0 0 0 0 0)"  >
<g style=""   >
</g>
</g>
<g transform="matrix(0 0 0 0 0 0)"  >
<g style=""   >
</g>
</g>
<g transform="matrix(NaN NaN NaN NaN 0 0)"  >
<g style=""   >
</g>
</g>
<g transform="matrix(NaN NaN NaN NaN 0 0)"  >
<g style=""   >
</g>
</g>
<g transform="matrix(NaN NaN NaN NaN 0 0)"  >
<g style=""   >
</g>
</g>
<g transform="matrix(16.88 0 0 16.88 540 540)"  >
<path style="stroke: none; stroke-width: 1; stroke-dasharray: none; stroke-linecap: butt; stroke-dashoffset: 0; stroke-linejoin: miter; stroke-miterlimit: 4; fill: rgb(255,255,255); fill-rule: nonzero; opacity: 1;"  transform=" translate(-32.09, -31.98)" d="M 32.09 61.568 C 48.275000000000006 61.568 61.676 48.138 61.676 31.980999999999998 C 61.676 15.794999999999998 48.246 2.3939999999999984 32.06 2.3939999999999984 C 15.903000000000002 2.3939999999999984 2.5020000000000024 15.793999999999999 2.5020000000000024 31.980999999999998 C 2.5020000000000024 48.137 15.932000000000002 61.568 32.089 61.568 z M 18.078 36.332 C 15.699 36.332 13.727 34.388 13.727 31.952 C 13.727 29.544 15.699 27.601000000000003 18.076999999999998 27.601000000000003 C 20.485 27.601000000000003 22.458 29.544000000000004 22.458 31.951 C 22.463888255395744 33.11444334834103 22.004316382185003 34.23193794769001 21.181627164937506 35.05462716493751 C 20.358937947690013 35.877316382185 19.241443348341033 36.33688825539575 18.078000000000003 36.331 z M 32.059 36.332 C 30.897026340810715 36.333062619467974 29.782338693242778 35.87194090184131 28.960698895700734 35.050301104299265 C 28.13905909815869 34.22866130675722 27.677937380532022 33.113973659189284 27.679 31.952 C 27.679 29.544 29.651999999999997 27.601000000000003 32.059 27.601000000000003 C 33.21327175645413 27.59940530187515 34.320740754682625 28.05716344771126 35.13702871919097 28.873263802942546 C 35.95331668369932 29.689364158173827 36.41132937875363 30.79672790748371 36.41 31.951 C 36.41745526173934 33.109719354536246 35.9625103661508 34.223569939160555 35.145975569233116 35.04573601053974 C 34.32944077231543 35.867902081918935 33.21874322647624 36.330491472801164 32.059999999999995 36.331 z M 46.04 36.332 C 44.87655665165897 36.33788825539575 43.759062052309986 35.878316382185 42.93637283506249 35.055627164937505 C 42.113683617815 34.23293794769001 41.65411174460425 33.11544334834103 41.66 31.952000000000005 C 41.660242308616205 30.79308342999235 42.12271431126967 29.68212828718101 42.94490945321262 28.865376903027187 C 43.76710459515556 28.04862551887336 44.881107391218514 27.593543709809097 46.04 27.601000000000003 C 48.42 27.601000000000003 50.391999999999996 29.544000000000004 50.391999999999996 31.951 C 50.391999999999996 34.388 48.419 36.331 46.03999999999999 36.331 z" stroke-linecap="round" />
</g>
</svg>