<?xml version="1.0" encoding="UTF-8" standalone="no" ?>
<!DOCTYPE svg PUBLIC "-//W3C//DTD SVG 1.1//EN" "http://www.w3.org/Graphics/SVG/1.1/DTD/svg11.dtd">
<svg xmlns="http://www.w3.org/2000/svg" xmlns:xlink="http://www.w3.org/1999/xlink" version="1.1" width="1080" height="1080" viewBox="0 0 1080 1080" xml:space="preserve">
<desc>Created with Fabric.js 5.2.4</desc>
<defs>
</defs>
<rect x="0" y="0" width="100%" height="100%" fill="transparent"></rect>
<g transform="matrix(1 0 0 1 540 540)" id="e096dab1-ea06-419b-bcfa-c07844678204"  >
</g>
<g transform="matrix(1 0 0 1 540 540)" id="db5b3e94-2809-44dc-8d57-f5810647d2e4"  >
<rect style="stroke: none; stroke-width: 1; stroke-dasharray: none; stroke-linecap: butt; stroke-dashoffset: 0; stroke-linejoin: miter; stroke-miterlimit: 4; fill: rgb(255,255,255); fill-rule: nonzero; opacity: 1; visibility: hidden;" vector-effect="non-scaling-stroke"  x="-540" y="-540" rx="0" ry="0" width="1080" height="1080" />
</g>
<g transform="matrix(0 0 0 0 0 0)"  >
<g style=""   >
</g>
</g>
<g transform="matrix(0 0 0 0 0 0)"  >
<g style=""   >
</g>
</g>
<g transform="matrix(0 0 0 0 0 0)"  >
<g style=""   >
</g>
</g>
<g transform="matrix(0 0 0 0 0 0)"  >
<g style=""   >
</g>
</g>
<g transform="matrix(0 0 0 0 0 0)"  >
<g style=""   >
</g>
</g>
<g transform="matrix(0 0 0 0 0 0)"  >
<g style=""   >
</g>
</g>
<g transform="matrix(0 0 0 0 0 0)"  >
<g style=""   >
</g>
</g>
<g transform="matrix(NaN NaN NaN NaN 0 0)"  >
<g style=""   >
</g>
</g>
<g transform="matrix(NaN NaN NaN NaN 0 0)"  >
<g style=""   >
</g>
</g>
<g transform="matrix(NaN NaN NaN NaN 0 0)"  >
<g style=""   >
</g>
</g>
<g transform="matrix(NaN NaN NaN NaN 0 0)"  >
<g style=""   >
</g>
</g>
<g transform="matrix(16.88 0 0 16.88 540 540)"  >
<path style="stroke: none; stroke-width: 1; stroke-dasharray: none; stroke-linecap: butt; stroke-dashoffset: 0; stroke-linejoin: miter; stroke-miterlimit: 4; fill: rgb(255,255,255); fill-rule: nonzero; opacity: 1;"  transform=" translate(-32.09, -32.05)" d="M 15.288 61.992 L 49.771 61.992 C 55.015 61.992 58.091 58.945 58.091 52.91 L 58.091 22.588 C 58.091 16.553 54.986000000000004 13.506 48.892 13.506 L 44.204 13.506 C 44.058 7.354 38.697 2.109 32.076 2.109 C 25.454 2.109 20.093 7.354 19.945999999999998 13.506 L 15.287999999999997 13.506 C 9.164999999999996 13.506 6.088999999999997 16.524 6.088999999999997 22.588 L 6.088999999999997 52.91 C 6.088999999999997 58.974999999999994 9.164999999999997 61.992 15.288999999999996 61.992 z M 32.076 6.561999999999998 C 36.206 6.561999999999998 39.341 9.667999999999997 39.488 13.505999999999997 L 24.663 13.505999999999997 C 24.81 9.667999999999996 27.945 6.562999999999997 32.076 6.562999999999997 z" stroke-linecap="round" />
</g>
</svg>