<svg xmlns="http://www.w3.org/2000/svg" width="64" height="64" viewBox="0 0 64 64" class="privacy-type__glyph privacy-type__glyph--purchases" aria-hidden="true"><path d="M15.288 61.992h34.483c5.244 0 8.32-3.047 8.32-9.082V22.588c0-6.035-3.105-9.082-9.199-9.082h-4.688c-.146-6.152-5.507-11.397-12.128-11.397-6.622 0-11.983 5.245-12.13 11.397h-4.658c-6.123 0-9.199 3.018-9.199 9.082V52.91c0 6.065 3.076 9.082 9.2 9.082zm16.788-55.43c4.13 0 7.265 3.106 7.412 6.944H24.663c.147-3.838 3.282-6.943 7.413-6.943z"></path></svg>