<svg xmlns="http://www.w3.org/2000/svg" width="64" height="64" viewBox="0 0 64 64" class="privacy-type__glyph privacy-type__glyph--search-history" aria-hidden="true"><path d="M32.09 61.568c16.185 0 29.586-13.43 29.586-29.587 0-16.186-13.43-29.587-29.616-29.587-16.157 0-29.558 13.4-29.558 29.587 0 16.156 13.43 29.587 29.587 29.587zm-15.693-33.01c0-6.846 5.598-12.473 12.443-12.473 6.846 0 12.444 5.598 12.444 12.473 0 2.552-.812 4.96-2.146 6.904l7.687 7.744c.493.522.812 1.16.812 1.828 0 1.508-.986 2.581-2.437 2.581-.87 0-1.508-.29-2.117-.928l-7.658-7.629c-1.914 1.19-4.177 1.944-6.585 1.944-6.845 0-12.443-5.628-12.443-12.444zm4.09 0c0 4.554 3.77 8.354 8.353 8.354 4.555 0 8.325-3.8 8.325-8.354 0-4.612-3.77-8.383-8.325-8.383-4.583 0-8.354 3.8-8.354 8.383z"></path></svg>