<?xml version="1.0" encoding="UTF-8" standalone="no" ?>
<!DOCTYPE svg PUBLIC "-//W3C//DTD SVG 1.1//EN" "http://www.w3.org/Graphics/SVG/1.1/DTD/svg11.dtd">
<svg xmlns="http://www.w3.org/2000/svg" xmlns:xlink="http://www.w3.org/1999/xlink" version="1.1" width="1080" height="1080" viewBox="0 0 1080 1080" xml:space="preserve">
<desc>Created with Fabric.js 5.2.4</desc>
<defs>
</defs>
<rect x="0" y="0" width="100%" height="100%" fill="transparent"></rect>
<g transform="matrix(1 0 0 1 540 540)" id="e096dab1-ea06-419b-bcfa-c07844678204"  >
</g>
<g transform="matrix(1 0 0 1 540 540)" id="db5b3e94-2809-44dc-8d57-f5810647d2e4"  >
<rect style="stroke: none; stroke-width: 1; stroke-dasharray: none; stroke-linecap: butt; stroke-dashoffset: 0; stroke-linejoin: miter; stroke-miterlimit: 4; fill: rgb(255,255,255); fill-rule: nonzero; opacity: 1; visibility: hidden;" vector-effect="non-scaling-stroke"  x="-540" y="-540" rx="0" ry="0" width="1080" height="1080" />
</g>
<g transform="matrix(0 0 0 0 0 0)"  >
<g style=""   >
</g>
</g>
<g transform="matrix(0 0 0 0 0 0)"  >
<g style=""   >
</g>
</g>
<g transform="matrix(0 0 0 0 0 0)"  >
<g style=""   >
</g>
</g>
<g transform="matrix(0 0 0 0 0 0)"  >
<g style=""   >
</g>
</g>
<g transform="matrix(0 0 0 0 0 0)"  >
<g style=""   >
</g>
</g>
<g transform="matrix(0 0 0 0 0 0)"  >
<g style=""   >
</g>
</g>
<g transform="matrix(0 0 0 0 0 0)"  >
<g style=""   >
</g>
</g>
<g transform="matrix(NaN NaN NaN NaN 0 0)"  >
<g style=""   >
</g>
</g>
<g transform="matrix(NaN NaN NaN NaN 0 0)"  >
<g style=""   >
</g>
</g>
<g transform="matrix(NaN NaN NaN NaN 0 0)"  >
<g style=""   >
</g>
</g>
<g transform="matrix(NaN NaN NaN NaN 0 0)"  >
<g style=""   >
</g>
</g>
<g transform="matrix(NaN NaN NaN NaN 0 0)"  >
<g style=""   >
</g>
</g>
<g transform="matrix(16.88 0 0 16.88 540 540)"  >
<path style="stroke: none; stroke-width: 1; stroke-dasharray: none; stroke-linecap: butt; stroke-dashoffset: 0; stroke-linejoin: miter; stroke-miterlimit: 4; fill: rgb(255,255,255); fill-rule: nonzero; opacity: 1;"  transform=" translate(-32.09, -31.98)" d="M 32.09 61.568 C 48.275000000000006 61.568 61.676 48.138 61.676 31.980999999999998 C 61.676 15.794999999999998 48.246 2.3939999999999984 32.06 2.3939999999999984 C 15.903000000000002 2.3939999999999984 2.5020000000000024 15.793999999999999 2.5020000000000024 31.980999999999998 C 2.5020000000000024 48.137 15.932000000000002 61.568 32.089 61.568 z M 16.397000000000006 28.558 C 16.397000000000006 21.712 21.995000000000005 16.085 28.840000000000003 16.085 C 35.68600000000001 16.085 41.284000000000006 21.683 41.284000000000006 28.558 C 41.284000000000006 31.11 40.47200000000001 33.518 39.138000000000005 35.462 L 46.825 43.206 C 47.318000000000005 43.728 47.637 44.366 47.637 45.034000000000006 C 47.637 46.54200000000001 46.651 47.61500000000001 45.2 47.61500000000001 C 44.330000000000005 47.61500000000001 43.692 47.32500000000001 43.083000000000006 46.68700000000001 L 35.425000000000004 39.058000000000014 C 33.511 40.24800000000001 31.248000000000005 41.00200000000002 28.840000000000003 41.00200000000002 C 21.995000000000005 41.00200000000002 16.397000000000006 35.37400000000002 16.397000000000006 28.558000000000014 z M 20.487000000000005 28.558 C 20.487000000000005 33.112 24.257000000000005 36.912 28.840000000000003 36.912 C 33.395 36.912 37.165000000000006 33.112 37.165000000000006 28.558 C 37.165000000000006 23.945999999999998 33.395 20.175 28.840000000000007 20.175 C 24.257000000000005 20.175 20.486000000000008 23.975 20.486000000000008 28.558 z" stroke-linecap="round" />
</g>
</svg>