<svg xmlns="http://www.w3.org/2000/svg" width="64" height="64" viewBox="0 0 64 64" class="privacy-type__glyph privacy-type__glyph--sensitive-info" aria-hidden="true"><path d="M32.079 50.731c17.644 0 29.847-14.274 29.847-18.723 0-4.472-12.225-18.724-29.847-18.724-17.424 0-29.87 14.252-29.87 18.724 0 4.45 12.446 18.723 29.87 18.723zm0-6.454c-6.873 0-12.314-5.573-12.336-12.27-.022-6.872 5.463-12.269 12.336-12.269 6.806 0 12.313 5.397 12.313 12.27 0 6.696-5.507 12.27-12.313 12.27zm0-7.842c2.445 0 4.472-2.004 4.472-4.427 0-2.445-2.027-4.45-4.472-4.45-2.467 0-4.494 2.005-4.494 4.45 0 2.423 2.027 4.427 4.494 4.427z"></path></svg>