<?xml version="1.0" encoding="UTF-8" standalone="no" ?>
<!DOCTYPE svg PUBLIC "-//W3C//DTD SVG 1.1//EN" "http://www.w3.org/Graphics/SVG/1.1/DTD/svg11.dtd">
<svg xmlns="http://www.w3.org/2000/svg" xmlns:xlink="http://www.w3.org/1999/xlink" version="1.1" width="1080" height="1080" viewBox="0 0 1080 1080" xml:space="preserve">
<desc>Created with Fabric.js 5.2.4</desc>
<defs>
</defs>
<rect x="0" y="0" width="100%" height="100%" fill="transparent"></rect>
<g transform="matrix(1 0 0 1 540 540)" id="e096dab1-ea06-419b-bcfa-c07844678204"  >
</g>
<g transform="matrix(1 0 0 1 540 540)" id="db5b3e94-2809-44dc-8d57-f5810647d2e4"  >
<rect style="stroke: none; stroke-width: 1; stroke-dasharray: none; stroke-linecap: butt; stroke-dashoffset: 0; stroke-linejoin: miter; stroke-miterlimit: 4; fill: rgb(255,255,255); fill-rule: nonzero; opacity: 1; visibility: hidden;" vector-effect="non-scaling-stroke"  x="-540" y="-540" rx="0" ry="0" width="1080" height="1080" />
</g>
<g transform="matrix(0 0 0 0 0 0)"  >
<g style=""   >
</g>
</g>
<g transform="matrix(0 0 0 0 0 0)"  >
<g style=""   >
</g>
</g>
<g transform="matrix(0 0 0 0 0 0)"  >
<g style=""   >
</g>
</g>
<g transform="matrix(0 0 0 0 0 0)"  >
<g style=""   >
</g>
</g>
<g transform="matrix(0 0 0 0 0 0)"  >
<g style=""   >
</g>
</g>
<g transform="matrix(0 0 0 0 0 0)"  >
<g style=""   >
</g>
</g>
<g transform="matrix(0 0 0 0 0 0)"  >
<g style=""   >
</g>
</g>
<g transform="matrix(NaN NaN NaN NaN 0 0)"  >
<g style=""   >
</g>
</g>
<g transform="matrix(NaN NaN NaN NaN 0 0)"  >
<g style=""   >
</g>
</g>
<g transform="matrix(NaN NaN NaN NaN 0 0)"  >
<g style=""   >
</g>
</g>
<g transform="matrix(NaN NaN NaN NaN 0 0)"  >
<g style=""   >
</g>
</g>
<g transform="matrix(NaN NaN NaN NaN 0 0)"  >
<g style=""   >
</g>
</g>
<g transform="matrix(NaN NaN NaN NaN 0 0)"  >
<g style=""   >
</g>
</g>
<g transform="matrix(NaN NaN NaN NaN 0 0)"  >
<g style=""   >
</g>
</g>
<g transform="matrix(16.88 0 0 16.88 540 540)"  >
<path style="stroke: none; stroke-width: 1; stroke-dasharray: none; stroke-linecap: butt; stroke-dashoffset: 0; stroke-linejoin: miter; stroke-miterlimit: 4; fill: rgb(255,255,255); fill-rule: nonzero; opacity: 1;"  transform=" translate(-32.07, -31.82)" d="M 49.925 53.844 L 57.022999999999996 53.844 C 60.309999999999995 53.844 62.001 52.272 62.001 49.152 L 62.001 14.52 C 62.001 11.399999999999999 60.311 9.803 57.022999999999996 9.803 L 49.925 9.803 C 46.686 9.803 44.995 11.399000000000001 44.995 14.52 L 44.995 49.152 C 44.995 52.272 46.686 53.844 49.925 53.844 z M 28.512999999999998 53.844 L 35.61 53.844 C 38.897 53.844 40.565 52.272 40.565 49.152 L 40.565 21.475 C 40.565 18.355 38.897 16.758000000000003 35.61 16.758000000000003 L 28.512999999999998 16.758000000000003 C 25.249 16.758000000000003 23.558 18.354000000000003 23.558 21.475 L 23.558 49.152 C 23.558 52.272 25.249 53.844 28.512999999999998 53.844 z M 7.099999999999998 53.844 L 14.173999999999998 53.844 C 17.461 53.844 19.151999999999997 52.272 19.151999999999997 49.152 L 19.151999999999997 28.406 C 19.151999999999997 25.285999999999998 17.461 23.689999999999998 14.173999999999998 23.689999999999998 L 7.1 23.689999999999998 C 3.836 23.689999999999998 2.1449999999999996 25.285999999999998 2.1449999999999996 28.406 L 2.1449999999999996 49.152 C 2.1449999999999996 52.272 3.8359999999999994 53.844 7.1 53.844 z" stroke-linecap="round" />
</g>
</svg>