<svg xmlns="http://www.w3.org/2000/svg" width="64" height="64" viewBox="0 0 64 64" class="privacy-type__glyph privacy-type__glyph--usage-data" aria-hidden="true"><path d="M49.925 53.844h7.098c3.287 0 4.978-1.572 4.978-4.692V14.52c0-3.12-1.69-4.717-4.978-4.717h-7.098c-3.239 0-4.93 1.596-4.93 4.717v34.632c0 3.12 1.691 4.692 4.93 4.692zm-21.412 0h7.097c3.287 0 4.955-1.572 4.955-4.692V21.475c0-3.12-1.668-4.717-4.955-4.717h-7.097c-3.264 0-4.955 1.596-4.955 4.717v27.677c0 3.12 1.691 4.692 4.955 4.692zm-21.413 0h7.074c3.287 0 4.978-1.572 4.978-4.692V28.406c0-3.12-1.691-4.716-4.978-4.716H7.1c-3.264 0-4.955 1.596-4.955 4.716v20.746c0 3.12 1.691 4.692 4.955 4.692z"></path></svg>