<?xml version="1.0" encoding="UTF-8" standalone="no" ?>
<!DOCTYPE svg PUBLIC "-//W3C//DTD SVG 1.1//EN" "http://www.w3.org/Graphics/SVG/1.1/DTD/svg11.dtd">
<svg xmlns="http://www.w3.org/2000/svg" xmlns:xlink="http://www.w3.org/1999/xlink" version="1.1" width="1080" height="1080" viewBox="0 0 1080 1080" xml:space="preserve">
<desc>Created with Fabric.js 5.2.4</desc>
<defs>
</defs>
<rect x="0" y="0" width="100%" height="100%" fill="transparent"></rect>
<g transform="matrix(1 0 0 1 540 540)" id="e096dab1-ea06-419b-bcfa-c07844678204"  >
</g>
<g transform="matrix(1 0 0 1 540 540)" id="db5b3e94-2809-44dc-8d57-f5810647d2e4"  >
<rect style="stroke: none; stroke-width: 1; stroke-dasharray: none; stroke-linecap: butt; stroke-dashoffset: 0; stroke-linejoin: miter; stroke-miterlimit: 4; fill: rgb(255,255,255); fill-rule: nonzero; opacity: 1; visibility: hidden;" vector-effect="non-scaling-stroke"  x="-540" y="-540" rx="0" ry="0" width="1080" height="1080" />
</g>
<g transform="matrix(0 0 0 0 0 0)"  >
<g style=""   >
</g>
</g>
<g transform="matrix(0 0 0 0 0 0)"  >
<g style=""   >
</g>
</g>
<g transform="matrix(0 0 0 0 0 0)"  >
<g style=""   >
</g>
</g>
<g transform="matrix(0 0 0 0 0 0)"  >
<g style=""   >
</g>
</g>
<g transform="matrix(0 0 0 0 0 0)"  >
<g style=""   >
</g>
</g>
<g transform="matrix(0 0 0 0 0 0)"  >
<g style=""   >
</g>
</g>
<g transform="matrix(0 0 0 0 0 0)"  >
<g style=""   >
</g>
</g>
<g transform="matrix(NaN NaN NaN NaN 0 0)"  >
<g style=""   >
</g>
</g>
<g transform="matrix(NaN NaN NaN NaN 0 0)"  >
<g style=""   >
</g>
</g>
<g transform="matrix(NaN NaN NaN NaN 0 0)"  >
<g style=""   >
</g>
</g>
<g transform="matrix(NaN NaN NaN NaN 0 0)"  >
<g style=""   >
</g>
</g>
<g transform="matrix(NaN NaN NaN NaN 0 0)"  >
<g style=""   >
</g>
</g>
<g transform="matrix(NaN NaN NaN NaN 0 0)"  >
<g style=""   >
</g>
</g>
<g transform="matrix(NaN NaN NaN NaN 0 0)"  >
<g style=""   >
</g>
</g>
<g transform="matrix(NaN NaN NaN NaN 0 0)"  >
<g style=""   >
</g>
</g>
<g transform="matrix(16.88 0 0 16.88 540 540)"  >
<path style="stroke: none; stroke-width: 1; stroke-dasharray: none; stroke-linecap: butt; stroke-dashoffset: 0; stroke-linejoin: miter; stroke-miterlimit: 4; fill: rgb(255,255,255); fill-rule: nonzero; opacity: 1;"  transform=" translate(-31.84, -31.83)" d="M 10.227 24.818 C 10.227 18.44 13.607 15.105000000000002 20.03 15.105000000000002 L 50.363 15.105000000000002 L 50.363 14.542000000000002 C 50.363 9.899000000000001 47.997 7.5550000000000015 43.287 7.5550000000000015 L 9.122 7.5550000000000015 C 4.39 7.5550000000000015 2.0460000000000003 9.899000000000001 2.0460000000000003 14.542000000000002 L 2.0460000000000003 38.272000000000006 C 2.0460000000000003 42.915000000000006 4.390000000000001 45.236000000000004 9.122 45.236000000000004 L 10.227 45.236000000000004 L 10.227 24.818 z M 20.367 56.098 L 54.55500000000001 56.098 C 59.242000000000004 56.098 61.63100000000001 53.754 61.63100000000001 49.112 L 61.63100000000001 25.156 C 61.63100000000001 20.535999999999998 59.242000000000004 18.192 54.55500000000001 18.192 L 20.368 18.192 C 15.657999999999998 18.192 13.290999999999999 20.514 13.290999999999999 25.156 L 13.290999999999999 49.111999999999995 C 13.290999999999999 53.754 15.657999999999998 56.09799999999999 20.368 56.09799999999999 z M 29.022 36.897999999999996 C 26.134788859732986 36.89634496311168 23.794655036888315 34.55621114026701 23.793 31.668999999999997 C 23.793 28.806999999999995 26.137 26.440999999999995 29.022 26.440999999999995 C 31.884 26.440999999999995 34.227 28.806999999999995 34.227 31.668999999999997 C 34.227 34.553999999999995 31.883999999999997 36.897 29.022 36.897 z M 20.12 52.47 C 18.092000000000002 52.47 16.92 51.32 16.92 49.269999999999996 L 16.92 47.422 L 20.864 43.839 C 22.847 42.036 24.019000000000002 40.796 25.596 40.796 C 27.219 40.796 28.503 42.080999999999996 30.576 43.861 L 32.695 45.754 L 40.065 39.105999999999995 C 42.543 36.87499999999999 44.165 35.364999999999995 46.126 35.364999999999995 C 48.132 35.364999999999995 49.821999999999996 36.83 52.233999999999995 39.105999999999995 L 58.00299999999999 44.581999999999994 L 58.00299999999999 49.269999999999996 C 58.00299999999999 51.31999999999999 56.80899999999999 52.47 54.80299999999999 52.47 L 20.12 52.47 z" stroke-linecap="round" />
</g>
</svg>